<?xml version="1.0" standalone="no"?><!DOCTYPE svg PUBLIC "-//W3C//DTD SVG 1.1//EN" "http://www.w3.org/Graphics/SVG/1.1/DTD/svg11.dtd"><svg t="1637578932987" class="icon" viewBox="0 0 1377 1024" version="1.1" xmlns="http://www.w3.org/2000/svg" p-id="4566" xmlns:xlink="http://www.w3.org/1999/xlink" width="43.03125" height="32"><defs><style type="text/css"></style></defs><path d="M210.86618047 791.99244161h-141.291392l-3.17905663-19.13975069c-0.64104433-3.92476114-15.43739239-95.98656885 13.39651758-199.01154199 17.15120508-61.31784727 46.23368291-113.72648818 86.41015224-155.68218193 50.13227901-52.42172256 117.33726797-88.33328526 199.75724561-106.74041309a22.89443818 22.89443818 0 1 1 9.98197558 44.68994385c-73.14445987 16.26159287-132.36910224 47.56810166-176.07785537 93.00375-34.93037197 36.30403828-60.36282247 81.94900693-75.61705957 135.58740644-19.07433809 67.21807148-17.36052539 130.8253623-14.848679 161.4646626h101.46815156a22.89443818 22.89443818 0 0 1 0 45.78887637zM424.3208416 746.19048184h529.93429717v45.78887724H424.3208416z" p-id="4567"></path><path d="M1272.81489629 791.99244161h-107.06747608v-45.78887726h61.27859971V242.40817549c0-74.23031075-61.16085703-134.61929824-136.33311094-134.61929825H687.63304971c-75.17225303 0-136.33311006 60.3889875-136.33311094 134.61929825v526.68982705h-45.78887637V242.40817549c0-99.42727588 81.70043906-180.40817549 182.12198731-180.40817549h403.05985927c100.42154825 0 182.1219873 80.92856953 182.1219873 180.40817549zM321.89766523 962a142.3118294 142.3118294 0 1 1 142.32491191-142.3118294 142.48190215 142.48190215 0 0 1-142.32491191 142.3118294z m0-238.84786494a96.52295214 96.52295214 0 1 0 96.52295303 96.52295303 96.6406957 96.6406957 0 0 0-96.52295303-96.52295303z" p-id="4568"></path><path d="M1064.98572559 962a142.3118294 142.3118294 0 1 1 142.31182939-142.3118294 142.48190215 142.48190215 0 0 1-142.31182939 142.3118294z m0-238.84786494a96.52295214 96.52295214 0 1 0 96.52295214 96.52295303 96.6406957 96.6406957 0 0 0-96.52295214-96.52295303z" p-id="4569"></path></svg>