<?xml version="1.0" standalone="no"?><!DOCTYPE svg PUBLIC "-//W3C//DTD SVG 1.1//EN" "http://www.w3.org/Graphics/SVG/1.1/DTD/svg11.dtd"><svg t="1637578886030" class="icon" viewBox="0 0 1024 1024" version="1.1" xmlns="http://www.w3.org/2000/svg" p-id="3311" xmlns:xlink="http://www.w3.org/1999/xlink" width="32" height="32"><defs><style type="text/css"></style></defs><path d="M712.4 917.6H166c-42.6 0-82.5-21.3-112.2-59.9C24.9 820.2 9 770.5 9 717.7V292.9c0-52.7 15.9-102.4 44.8-140C83.5 114.3 123.4 93 166 93h663.8c42.6 0 82.5 21.3 112.2 59.9 28.9 37.5 44.8 87.2 44.8 140V585h-28V292.9c0-94.8-57.9-171.9-129-171.9H166c-71.1 0-129 77.1-129 171.9v424.8c0 94.8 57.9 171.9 129 171.9h546.4v28z" fill="" p-id="3312"></path><path d="M865.6 932.9c-83.7 0-151.9-68.1-151.9-151.9s68.1-151.9 151.9-151.9 151.9 68.1 151.9 151.9-68.2 151.9-151.9 151.9z m0-275.7c-68.3 0-123.9 55.6-123.9 123.9S797.3 905 865.6 905s123.9-55.6 123.9-123.9-55.6-123.9-123.9-123.9zM145.6 230.9h91.9v28h-91.9zM298.8 230.9h245.1v28H298.8zM427.433 437.21l22.237-17.012 97.642 127.627-22.238 17.013z" fill="" p-id="3313"></path><path d="M525.174 547.88l97.64-127.645 22.241 17.013-97.641 127.644z" fill="" p-id="3314"></path><path d="M406 542.4h260.4v28H406zM406 670h260.4v28H406z" fill="" p-id="3315"></path><path d="M522.2 556.4h28v255.3h-28zM866.9 704.5h28v107.2h-28z" fill="" p-id="3316"></path><path d="M789 782.4h91.9v28H789zM23 353.5h949.8v28H23z" fill="" p-id="3317"></path></svg>