<?xml version="1.0" standalone="no"?><!DOCTYPE svg PUBLIC "-//W3C//DTD SVG 1.1//EN" "http://www.w3.org/Graphics/SVG/1.1/DTD/svg11.dtd"><svg t="1635404426455" class="icon" viewBox="0 0 1024 1024" version="1.1" xmlns="http://www.w3.org/2000/svg" p-id="9711" xmlns:xlink="http://www.w3.org/1999/xlink" width="32" height="32"><defs><style type="text/css"></style></defs><path d="M884.8 265.6c-14.4-16-35.2-25.6-57.6-25.6H243.2l-3.2-38.4c-1.6-25.6-16-46.4-38.4-57.6l-48-20.8c-12.8-4.8-25.6 0-32 12.8-4.8 12.8 0 25.6 12.8 32l46.4 20.8c6.4 3.2 11.2 9.6 11.2 17.6l28.8 468.8c3.2 48 46.4 86.4 96 86.4H848c12.8 0 24-11.2 24-24s-11.2-24-24-24H318.4c-25.6 0-46.4-19.2-48-41.6l-1.6-24L795.2 608c36.8-3.2 67.2-30.4 70.4-67.2l38.4-212.8v-1.6c1.6-22.4-4.8-44.8-19.2-60.8z" p-id="9712"></path><path d="M305.6 856m-56 0a56 56 0 1 0 112 0 56 56 0 1 0-112 0Z" p-id="9713"></path><path d="M753.6 856m-56 0a56 56 0 1 0 112 0 56 56 0 1 0-112 0Z" p-id="9714"></path></svg>